<svg width="53" height="54" viewBox="0 0 53 54" fill="none" xmlns="http://www.w3.org/2000/svg">
<path d="M44.7749 7.18023C45.4187 6.71945 46.2596 7.56735 45.7942 8.20775C43.5255 11.3294 40.3603 15.7928 38.1886 19.3005C37.3681 20.6258 36.492 22.1351 35.6212 23.6886C34.4628 25.7551 34.7761 28.3051 36.2061 30.194C40.1189 35.3624 41.9655 39.7048 40.5281 41.1421C38.4589 43.2091 30.3746 38.478 22.4707 30.5741C14.5667 22.6702 9.83571 14.5859 11.9028 12.5167C13.3292 11.0902 17.6169 12.8981 22.7338 16.7503C24.6325 18.1797 27.1925 18.4844 29.2611 17.3143C30.8072 16.4398 32.3103 15.5624 33.6325 14.7443C37.1454 12.5707 41.6342 9.42842 44.7749 7.18023Z" fill="white"/>
<path d="M10.0784 9.52834C9.66908 9.74273 9.30005 10.0098 8.97699 10.3328C4.98405 14.326 9.43037 25.246 18.9076 34.7232C28.3847 44.2002 39.304 48.646 43.2972 44.653C43.6198 44.3305 43.8868 43.9623 44.101 43.5537C43.8846 44.6069 43.4406 45.4999 42.7496 46.1909C38.6413 50.2992 27.4056 45.7251 17.6549 35.9744C7.90445 26.2238 3.3309 14.9887 7.43917 10.8804C8.13064 10.189 9.02422 9.74461 10.0784 9.52834Z" fill="white"/>
<path d="M25.481 44.2204C25.3591 44.7549 25.1258 45.2063 24.7665 45.5523C22.6189 47.6203 16.8989 45.1646 11.9908 40.0673C7.08273 34.9701 4.84496 29.1614 6.99261 27.0935C7.3518 26.7476 7.81138 26.5307 8.34988 26.4291C8.14139 26.5344 7.95284 26.6677 7.78636 26.8281C5.69944 28.8383 7.87485 34.4833 12.645 39.4374C17.4153 44.3915 22.9741 46.7786 25.0617 44.7691C25.2283 44.6087 25.3678 44.4249 25.481 44.2204Z" fill="white"/>
</svg>
