<svg width="168" height="171" viewBox="0 0 168 171" fill="none" xmlns="http://www.w3.org/2000/svg">
<path d="M79.5869 12.421C79.9956 9.95358 83.7653 9.96828 84.1563 12.4386C86.0618 24.4802 88.9636 41.5223 91.9482 54.2101C93.0751 59.0004 94.4857 64.3254 96.0073 69.7376C98.033 76.9434 104.43 81.9403 111.844 82.9652C132.135 85.7699 145.964 91.3471 145.964 97.7696C145.963 107.011 117.333 114.502 82.0166 114.502C46.7001 114.502 18.0708 107.011 18.0703 97.7696C18.0704 91.3952 31.6924 85.8539 51.7347 83.0291C59.1701 81.9812 65.5703 76.9428 67.5749 69.7064C69.072 64.3023 70.4665 58.9878 71.5918 54.2101C74.5837 41.5066 77.5929 24.4597 79.5869 12.421Z" fill="white"/>
<path d="M159.33 95.1719C161.201 98.0096 162.203 100.999 162.203 104.088C162.203 122.443 126.887 137.323 83.3223 137.323C39.7576 137.323 4.44141 122.443 4.44141 104.088C4.44142 101 5.44093 98.0113 7.31055 95.1748C6.87655 96.5659 6.65234 97.9848 6.65234 99.4258C6.65251 117.266 40.9782 131.729 83.3213 131.729C125.664 131.729 159.99 117.266 159.99 99.4258C159.99 97.9837 159.765 96.564 159.33 95.1719Z" fill="white"/>
</svg>
