<svg width="124" height="124" viewBox="0 0 124 124" fill="none" xmlns="http://www.w3.org/2000/svg">
<path d="M71.68 1.09194L61.4788 62.3645M51.2776 123.637L61.4788 62.3645M61.4788 62.3645L1.89268 52.444L62.0409 62.458M122.189 72.4721L62.0409 62.458M62.0409 62.458L34.3968 23.7704L61.8067 62.1302M89.2165 100.49L61.8067 62.1302M61.8067 62.1302L100.166 34.7203L23.4469 89.54" stroke="#D9D9D9" stroke-width="0.574466"/>
<path d="M92.6052 8.37917L61.5473 62.1731M30.4893 115.967L61.5473 62.1731M61.5473 62.1731L9.23392 31.97L62.0408 62.4581M114.848 92.9461L62.0408 62.4581M62.0408 62.4581L49.7342 16.529L61.9365 62.0688M74.1389 107.609L61.9365 62.0688M61.9365 62.0688L107.476 49.8665L16.3967 74.2712" stroke="#D9D9D9" stroke-width="0.574466"/>
</svg>
