<svg width="168" height="171" viewBox="0 0 168 171" fill="none" xmlns="http://www.w3.org/2000/svg">
<path d="M80.2881 17.91C80.6649 15.6349 84.1415 15.6488 84.502 17.9266C86.259 29.0297 88.9346 44.7434 91.6865 56.4422C92.7256 60.8594 94.0268 65.7697 95.4301 70.7602C97.2984 77.4042 103.197 82.0116 110.033 82.9568C128.743 85.5432 141.493 90.6863 141.493 96.6082C141.492 105.129 115.093 112.037 82.5293 112.037C49.9654 112.037 23.5673 105.129 23.5664 96.6082C23.5664 90.7306 36.1267 85.6209 54.607 83.0162C61.4629 82.0499 67.3642 77.4041 69.2124 70.7317C70.5927 65.7484 71.8784 60.8478 72.916 56.4422C75.6748 44.7288 78.4495 29.0104 80.2881 17.91Z" fill="white"/>
<path d="M153.816 94.2109C155.542 96.8279 156.467 99.5849 156.467 102.434C156.467 119.358 123.903 133.079 83.7334 133.079C43.564 133.079 11 119.358 11 102.434C11 99.5872 11.9221 96.8319 13.6455 94.2168C13.2456 95.499 13.0381 96.8066 13.0381 98.1348C13.0381 114.585 44.6892 127.921 83.7324 127.921C122.776 127.921 154.426 114.585 154.426 98.1348C154.426 96.8045 154.218 95.4951 153.816 94.2109Z" fill="white"/>
<path d="M44.9216 132.553C44.7016 133.211 44.581 133.883 44.5681 134.568C44.4085 143.008 60.5175 150.158 80.549 150.536C100.581 150.915 116.948 144.38 117.108 135.94C117.121 135.256 117.025 134.582 116.832 133.918C117.692 135.278 118.14 136.701 118.112 138.162C117.947 146.845 101.107 153.569 80.4981 153.179C59.8889 152.79 43.315 145.435 43.4787 136.751C43.5064 135.288 44.0085 133.88 44.9216 132.553Z" fill="white"/>
</svg>
