<svg width="30" height="22" viewBox="0 0 30 22" fill="none" xmlns="http://www.w3.org/2000/svg">
<g id="Group">
<path id="Vector" d="M19 11C19 12.0609 18.5786 13.0783 17.8284 13.8284C17.0783 14.5786 16.0609 15 15 15C13.9391 15 12.9217 14.5786 12.1716 13.8284C11.4214 13.0783 11 12.0609 11 11C11 9.93913 11.4214 8.92172 12.1716 8.17157C12.9217 7.42143 13.9391 7 15 7C16.0609 7 17.0783 7.42143 17.8284 8.17157C18.5786 8.92172 19 9.93913 19 11Z" stroke="white" stroke-width="2" stroke-linecap="round" stroke-linejoin="round"/>
<path id="Vector_2" d="M1.66602 11.0003C3.79935 5.53766 8.78068 1.66699 14.9993 1.66699C21.218 1.66699 26.1993 5.53766 28.3327 11.0003C26.1993 16.463 21.218 20.3337 14.9993 20.3337C8.78068 20.3337 3.79935 16.463 1.66602 11.0003Z" stroke="white" stroke-width="2" stroke-linecap="round" stroke-linejoin="round"/>
</g>
</svg>
