<svg width="505" height="176" viewBox="0 0 505 176" fill="none" xmlns="http://www.w3.org/2000/svg">
<path d="M252.201 13.1397C265.18 31.5738 290.602 80.3117 288.454 127.791M252.201 13.1397C275.474 21.2327 322.558 52.2559 324.707 111.605M252.201 13.1397C278.607 12.2405 333.031 26.3583 339.476 90.0233M252.201 13.1397C269.387 5.58621 289.796 10.8916 297.853 14.4886M252.201 13.1397V1C257.949 1 263.353 1.58384 268.313 2.52837M252.201 13.1397C255.334 9.66244 262.942 2.672 268.313 2.52837M252.201 13.1397V131.837M288.454 127.791C287.111 158.814 280.397 169.605 275.027 172.302M288.454 127.791C304.566 125.633 319.336 116.101 324.707 111.605M288.454 127.791C280.845 129.14 262.942 131.837 252.201 131.837M275.027 172.302C270.73 174.46 258.019 175 252.201 175V131.837M275.027 172.302C285.768 169.605 303.223 160.163 311.28 152.07M324.707 111.605C324.707 125.093 319.336 143.977 311.28 152.07M324.707 111.605C335.448 106.209 339.029 94.9691 339.476 90.0233M311.28 152.07C332.763 133.186 340.819 103.512 339.476 90.0233M339.476 90.0233C339.476 72.0389 331.152 31.7537 297.853 14.4886M297.853 14.4886C293.517 11.138 282.818 5.2907 268.313 2.52837" stroke="white" stroke-width="0.581292"/>
<path d="M252.343 13.1397C239.363 31.5738 213.941 80.3117 216.09 127.791M252.343 13.1397C229.069 21.2327 181.985 52.2559 179.837 111.605M252.343 13.1397C225.936 12.2405 171.512 26.3583 165.067 90.0233M252.343 13.1397C235.156 5.58621 214.747 10.8917 206.691 14.4886M252.343 13.1397V1C246.595 1 241.19 1.58384 236.23 2.52837M252.343 13.1397C249.21 9.66244 241.601 2.672 236.23 2.52837M252.343 13.1397V131.837M216.09 127.791C217.432 158.814 224.146 169.605 229.517 172.302M216.09 127.791C199.977 125.633 185.207 116.101 179.837 111.605M216.09 127.791C223.698 129.14 241.601 131.837 252.343 131.837M229.517 172.302C233.813 174.46 246.524 175 252.343 175V131.837M229.517 172.302C218.775 169.605 201.32 160.163 193.264 152.07M179.837 111.605C179.837 125.093 185.207 143.977 193.264 152.07M179.837 111.605C169.095 106.209 165.515 94.9691 165.067 90.0233M193.264 152.07C171.78 133.186 163.724 103.512 165.067 90.0233M165.067 90.0233C165.067 72.0389 173.392 31.7537 206.691 14.4886M206.691 14.4886C211.027 11.138 221.725 5.2907 236.23 2.52837" stroke="white" stroke-width="0.581292"/>
<path d="M431.975 26.2074C442.669 41.3572 463.614 81.4119 461.844 120.432M431.975 26.2074C451.15 32.8585 489.943 58.3546 491.714 107.13M431.975 26.2074C453.731 25.4683 498.572 37.0709 503.883 89.3933M431.975 26.2074C446.135 19.9996 462.95 24.3598 469.588 27.3159M431.975 26.2074V16.2305C436.71 16.2305 441.164 16.7103 445.25 17.4865M431.975 26.2074C434.556 23.3496 440.825 17.6046 445.25 17.4865M431.975 26.2074V123.757M461.844 120.432C460.738 145.928 455.206 154.796 450.781 157.013M461.844 120.432C475.119 118.658 487.288 110.825 491.714 107.13M461.844 120.432C455.575 121.541 440.825 123.757 431.975 123.757M450.781 157.013C447.241 158.787 436.769 159.23 431.975 159.23V123.757M450.781 157.013C459.632 154.796 474.013 147.037 480.651 140.386M491.714 107.13C491.714 118.215 487.288 133.734 480.651 140.386M491.714 107.13C500.564 102.696 503.514 93.4579 503.883 89.3933M480.651 140.386C498.351 124.866 504.989 100.479 503.883 89.3933M503.883 89.3933C503.883 74.613 497.024 41.505 469.588 27.3159M469.588 27.3159C466.016 24.5623 457.201 19.7567 445.25 17.4865" stroke="white" stroke-width="0.478936"/>
<path d="M432.092 26.2074C421.398 41.3572 400.452 81.4119 402.222 120.432M432.092 26.2074C412.916 32.8585 374.123 58.3546 372.353 107.13M432.092 26.2074C410.335 25.4683 365.494 37.0709 360.184 89.3933M432.092 26.2074C417.931 19.9996 401.116 24.3598 394.478 27.3159M432.092 26.2074V16.2305C427.356 16.2305 422.903 16.7103 418.816 17.4865M432.092 26.2074C429.51 23.3496 423.241 17.6046 418.816 17.4865M432.092 26.2074V123.757M402.222 120.432C403.328 145.928 408.86 154.796 413.285 157.013M402.222 120.432C388.947 118.658 376.778 110.825 372.353 107.13M402.222 120.432C408.491 121.541 423.241 123.757 432.092 123.757M413.285 157.013C416.825 158.787 427.298 159.23 432.092 159.23V123.757M413.285 157.013C404.435 154.796 390.053 147.037 383.415 140.386M372.353 107.13C372.353 118.215 376.778 133.734 383.415 140.386M372.353 107.13C363.503 102.696 360.552 93.4579 360.184 89.3933M383.415 140.386C365.715 124.866 359.077 100.479 360.184 89.3933M360.184 89.3933C360.184 74.613 367.043 41.505 394.478 27.3159M394.478 27.3159C398.051 24.5623 406.865 19.7567 418.816 17.4865" stroke="white" stroke-width="0.478936"/>
<path d="M72.9083 26.2074C83.6023 41.3572 104.548 81.4119 102.778 120.432M72.9083 26.2074C92.0838 32.8585 130.877 58.3546 132.647 107.13M72.9083 26.2074C94.6651 25.4683 139.506 37.0709 144.816 89.3933M72.9083 26.2074C87.0686 19.9996 103.884 24.3598 110.522 27.3159M72.9083 26.2074V16.2305C77.644 16.2305 82.0972 16.7103 86.1836 17.4865M72.9083 26.2074C75.4896 23.3496 81.7585 17.6046 86.1836 17.4865M72.9083 26.2074V123.757M102.778 120.432C101.671 145.928 96.1401 154.796 91.715 157.013M102.778 120.432C116.053 118.658 128.222 110.825 132.647 107.13M102.778 120.432C96.5089 121.541 81.7585 123.757 72.9083 123.757M91.715 157.013C88.1749 158.787 77.7022 159.23 72.9083 159.23V123.757M91.715 157.013C100.565 154.796 114.947 147.037 121.584 140.386M132.647 107.13C132.647 118.215 128.222 133.734 121.584 140.386M132.647 107.13C141.497 102.696 144.447 93.4579 144.816 89.3933M121.584 140.386C139.285 124.866 145.922 100.479 144.816 89.3933M144.816 89.3933C144.816 74.613 137.957 41.505 110.522 27.3159M110.522 27.3159C106.949 24.5623 98.1347 19.7567 86.1836 17.4865" stroke="white" stroke-width="0.478936"/>
<path d="M73.0252 26.2074C62.3312 41.3572 41.3857 81.4119 43.1558 120.432M73.0252 26.2074C53.8498 32.8585 15.0564 58.3546 13.2864 107.13M73.0252 26.2074C51.2685 25.4683 6.42746 37.0709 1.11734 89.3933M73.0252 26.2074C58.8649 19.9996 42.0495 24.3598 35.4119 27.3159M73.0252 26.2074V16.2305C68.2895 16.2305 63.8364 16.7103 59.7499 17.4865M73.0252 26.2074C70.4439 23.3496 64.175 17.6046 59.7499 17.4865M73.0252 26.2074V123.757M43.1558 120.432C44.2621 145.928 49.7934 154.796 54.2185 157.013M43.1558 120.432C29.8805 118.658 17.7115 110.825 13.2864 107.13M43.1558 120.432C49.4247 121.541 64.175 123.757 73.0252 123.757M54.2185 157.013C57.7586 158.787 68.2313 159.23 73.0252 159.23V123.757M54.2185 157.013C45.3683 154.796 30.9868 147.037 24.3491 140.386M13.2864 107.13C13.2864 118.215 17.7115 133.734 24.3491 140.386M13.2864 107.13C4.43617 102.696 1.4861 93.4579 1.11734 89.3933M24.3491 140.386C6.64872 124.866 0.0110679 100.479 1.11734 89.3933M1.11734 89.3933C1.11734 74.613 7.97625 41.505 35.4119 27.3159M35.4119 27.3159C38.9842 24.5623 47.7989 19.7567 59.7499 17.4865" stroke="white" stroke-width="0.478936"/>
</svg>
