<svg width="221" height="240" viewBox="0 0 221 240" fill="none" xmlns="http://www.w3.org/2000/svg">
<path d="M114.405 236.039L114.652 236.079L114.652 236.079L114.405 236.039ZM107.078 236.009L106.831 236.048L106.831 236.048L107.078 236.009ZM128.35 162.91L128.594 162.967L128.594 162.967L128.35 162.91ZM141.107 115.809L141.088 115.56L140.916 115.573L140.867 115.739L141.107 115.809ZM156.752 62.2915L156.55 62.4376L156.614 62.5264L156.722 62.5397L156.752 62.2915ZM114.163 3.17303L114.366 3.0269L114.366 3.0269L114.163 3.17303ZM105.683 3.17304L105.886 3.31918L105.886 3.31918L105.683 3.17304ZM62.9802 62.449L63.0115 62.697L63.1195 62.6834L63.1831 62.5951L62.9802 62.449ZM80.5875 115.861L80.8269 115.79L80.7774 115.625L80.6059 115.612L80.5875 115.861ZM93.4929 162.91L93.2495 162.967L93.2495 162.967L93.4929 162.91ZM114.158 235.998C113.856 237.832 112.311 238.756 110.732 238.75C109.153 238.743 107.614 237.807 107.325 235.97L106.831 236.048C107.167 238.182 108.965 239.243 110.73 239.25C112.494 239.257 114.3 238.21 114.652 236.079L114.158 235.998ZM128.107 162.853C122.853 185.172 117.568 215.309 114.158 235.998L114.652 236.079C118.061 215.391 123.344 185.268 128.594 162.967L128.107 162.853ZM140.867 115.739C136.221 131.531 131.466 148.587 128.107 162.853L128.594 162.967C131.949 148.715 136.701 131.669 141.347 115.88L140.867 115.739ZM141.126 116.058C163.928 114.324 183.674 110.702 197.727 105.875C204.752 103.462 210.369 100.743 214.234 97.7983C218.095 94.8571 220.25 91.6572 220.25 88.2802L219.75 88.2802C219.75 91.428 217.741 94.4984 213.931 97.4006C210.126 100.299 204.566 102.997 197.565 105.402C183.566 110.21 163.866 113.828 141.088 115.56L141.126 116.058ZM220.25 88.2802C220.25 85.3031 218.574 82.4631 215.535 79.8194C212.495 77.1747 208.063 74.701 202.479 72.4514C191.309 67.9514 175.473 64.3266 156.783 62.0434L156.722 62.5397C175.39 64.8202 191.178 68.4378 202.292 72.9152C207.85 75.1543 212.226 77.603 215.207 80.1967C218.19 82.7913 219.75 85.5054 219.75 88.2802L220.25 88.2802ZM156.955 62.1454L114.366 3.0269L113.96 3.31916L156.55 62.4376L156.955 62.1454ZM114.366 3.0269C112.181 -0.00640069 107.666 -0.00638345 105.48 3.02691L105.886 3.31918C107.872 0.562861 111.974 0.562847 113.96 3.31916L114.366 3.0269ZM105.48 3.02691L62.7774 62.3028L63.1831 62.5951L105.886 3.31918L105.48 3.02691ZM62.9489 62.2009C44.5999 64.5182 29.081 68.1364 18.1422 72.605C12.6739 74.839 8.33636 77.2909 5.36173 79.9096C2.38801 82.5276 0.750017 85.3369 0.750017 88.2802L1.25002 88.2802C1.25002 85.5369 2.77511 82.8529 5.69212 80.2849C8.60823 77.7177 12.8891 75.2912 18.3313 73.0679C29.2138 68.6222 44.685 65.0114 63.0115 62.697L62.9489 62.2009ZM0.750017 88.2802C0.750018 91.6744 2.92686 94.8895 6.82493 97.8432C10.7276 100.8 16.3977 103.529 23.4873 105.948C37.6694 110.787 57.5891 114.406 80.569 116.111L80.6059 115.612C57.6506 113.909 37.7766 110.296 23.6488 105.475C16.5834 103.064 10.9695 100.356 7.1269 97.4446C3.2797 94.5296 1.25002 91.444 1.25002 88.2802L0.750017 88.2802ZM93.7363 162.853C90.3818 148.587 85.561 131.558 80.8269 115.79L80.348 115.933C85.081 131.699 89.8985 148.716 93.2495 162.967L93.7363 162.853ZM107.325 235.97C104.069 215.275 98.9781 185.145 93.7363 162.853L93.2495 162.967C98.4867 185.24 103.575 215.354 106.831 236.048L107.325 235.97Z" fill="white"/>
<path d="M114.335 222.749L114.582 222.79L114.582 222.79L114.335 222.749ZM106.988 222.72L106.741 222.759L106.741 222.759L106.988 222.72ZM126.953 156.818L127.196 156.875L127.196 156.875L126.953 156.818ZM138.757 113.233L138.738 112.983L138.566 112.996L138.517 113.162L138.757 113.233ZM153.241 63.7009L153.038 63.8471L153.102 63.9358L153.211 63.9491L153.241 63.7009ZM114.137 9.42156L113.935 9.56769L113.935 9.56769L114.137 9.42156ZM105.658 9.42156L105.86 9.56769L105.86 9.56769L105.658 9.42156ZM66.4493 63.8467L66.4806 64.0947L66.5885 64.0811L66.6521 63.9928L66.4493 63.8467ZM82.7491 113.281L82.9885 113.209L82.9391 113.044L82.7676 113.032L82.7491 113.281ZM94.6911 156.818L94.9345 156.761L94.9345 156.761L94.6911 156.818ZM114.088 222.708C113.785 224.542 112.236 225.466 110.652 225.46C109.068 225.454 107.526 224.517 107.235 222.681L106.741 222.759C107.079 224.893 108.882 225.953 110.65 225.96C112.418 225.967 114.229 224.921 114.582 222.79L114.088 222.708ZM126.709 156.761C121.992 176.797 117.249 203.64 114.088 222.708L114.582 222.79C117.742 203.723 122.483 176.894 127.196 156.875L126.709 156.761ZM138.517 113.162C134.217 127.776 129.817 143.559 126.709 156.761L127.196 156.875C130.301 143.687 134.698 127.914 138.997 113.303L138.517 113.162ZM138.776 113.482C159.881 111.877 178.159 108.524 191.168 104.056C197.671 101.822 202.871 99.305 206.451 96.578C210.026 93.8543 212.026 90.8879 212.026 87.7538L211.526 87.7538C211.526 90.6587 209.672 93.4956 206.148 96.1802C202.628 98.8615 197.484 101.358 191.005 103.583C178.051 108.033 159.819 111.38 138.738 112.983L138.776 113.482ZM212.026 87.7538C212.026 84.9909 210.471 82.3579 207.656 79.9093C204.841 77.4597 200.737 75.1693 195.568 73.0869C185.228 68.9212 170.57 65.5661 153.271 63.4528L153.211 63.9491C170.487 66.0597 185.097 69.4076 195.381 73.5506C200.524 75.6226 204.571 77.888 207.328 80.2865C210.086 82.686 211.526 85.1933 211.526 87.7538L212.026 87.7538ZM153.444 63.5548L114.34 9.27543L113.935 9.56769L153.038 63.8471L153.444 63.5548ZM114.34 9.27543C112.155 6.24212 107.64 6.24212 105.455 9.27543L105.86 9.56769C107.846 6.81136 111.949 6.81136 113.935 9.56769L114.34 9.27543ZM105.455 9.27543L66.2464 63.7006L66.6521 63.9928L105.86 9.56769L105.455 9.27543ZM66.4179 63.5987C49.4352 65.7435 35.0708 69.0924 24.945 73.2291C19.8832 75.297 15.8667 77.5673 13.1115 79.9928C10.3573 82.4176 8.83715 85.0223 8.83715 87.7538L9.33715 87.7538C9.33715 85.2223 10.7444 82.743 13.4419 80.3681C16.1386 77.9941 20.0984 75.7492 25.1341 73.692C35.2037 69.5783 49.5203 66.2367 66.4806 64.0947L66.4179 63.5987ZM8.83715 87.7538C8.83715 90.9038 10.8574 93.8844 14.4672 96.6195C18.0816 99.3582 23.3316 101.885 29.8942 104.124C43.0225 108.603 61.4608 111.953 82.7306 113.53L82.7676 113.032C61.5223 111.456 43.1297 108.112 30.0557 103.651C23.5172 101.42 18.3234 98.9141 14.7691 96.221C11.2102 93.5244 9.33715 90.6734 9.33715 87.7538L8.83715 87.7538ZM94.9345 156.761C91.8303 143.56 87.3693 127.801 82.9885 113.209L82.5096 113.353C86.8894 127.942 91.347 143.689 94.4478 156.875L94.9345 156.761ZM107.235 222.681C104.214 203.609 99.6401 176.773 94.9345 156.761L94.4478 156.875C99.1489 176.868 103.72 203.688 106.741 222.759L107.235 222.681Z" fill="white"/>
<path d="M114.541 205.413L114.787 205.454L114.787 205.454L114.541 205.413ZM107.155 205.384L107.402 205.345L107.402 205.345L107.155 205.384ZM125.449 148.73L125.692 148.787L125.692 148.787L125.449 148.73ZM136.036 109.64L136.017 109.391L135.845 109.404L135.796 109.57L136.036 109.64ZM149.029 65.2209L148.827 65.367L148.89 65.4558L148.999 65.4691L149.029 65.2209ZM114.394 17.1433L114.191 17.2894L114.191 17.2894L114.394 17.1433ZM105.914 17.1433L106.117 17.2894L106.117 17.2894L105.914 17.1433ZM71.1842 65.3516L71.2155 65.5997L71.3235 65.586L71.3871 65.4978L71.1842 65.3516ZM85.8067 109.684L86.0461 109.612L85.9967 109.447L85.8252 109.434L85.8067 109.684ZM96.5169 148.73L96.2736 148.787L96.2736 148.787L96.5169 148.73ZM114.294 205.371C113.987 207.204 112.431 208.129 110.838 208.123C109.245 208.117 107.696 207.179 107.402 205.345L106.908 205.424C107.25 207.557 109.061 208.616 110.836 208.623C112.612 208.63 114.431 207.585 114.787 205.454L114.294 205.371ZM125.206 148.672C121.173 165.801 117.119 188.477 114.294 205.371L114.787 205.454C117.612 188.561 121.664 165.899 125.692 148.787L125.206 148.672ZM135.796 109.57C131.94 122.676 127.993 136.832 125.206 148.672L125.692 148.787C128.477 136.96 132.42 122.814 136.276 109.711L135.796 109.57ZM136.055 109.89C154.983 108.45 171.377 105.443 183.045 101.435C188.878 99.4313 193.545 97.1728 196.759 94.7249C199.968 92.2803 201.769 89.6134 201.769 86.7909L201.269 86.7909C201.269 89.3841 199.613 91.9215 196.456 94.3271C193.302 96.7293 188.692 98.9667 182.883 100.962C171.268 104.951 154.921 107.953 136.017 109.391L136.055 109.89ZM201.769 86.7909C201.769 84.3028 200.368 81.9351 197.841 79.7368C195.313 77.5375 191.63 75.4822 186.994 73.6143C177.719 69.8774 164.573 66.8683 149.06 64.9727L148.999 65.4691C164.49 67.3618 177.589 70.3638 186.807 74.078C191.418 75.9356 195.044 77.9658 197.513 80.114C199.984 82.2632 201.269 84.5051 201.269 86.7909L201.769 86.7909ZM149.232 65.0748L114.597 16.9971L114.191 17.2894L148.827 65.367L149.232 65.0748ZM114.597 16.9971C112.411 13.9638 107.896 13.9638 105.711 16.9972L106.117 17.2894C108.102 14.5331 112.205 14.5331 114.191 17.2894L114.597 16.9971ZM105.711 16.9972L70.9814 65.2055L71.3871 65.4978L106.117 17.2894L105.711 16.9972ZM71.1529 65.1036C55.923 67.0274 43.0399 70.0311 33.9572 73.7419C29.4168 75.5969 25.8123 77.6341 23.3388 79.8118C20.8661 81.9888 19.4972 84.3311 19.4972 86.7909L19.9972 86.7909C19.9972 84.5311 21.2532 82.3142 23.6692 80.1871C26.0842 78.0609 29.632 76.0491 34.1463 74.2047C43.1728 70.5169 56.0082 67.5206 71.2155 65.5997L71.1529 65.1036ZM19.4972 86.7909C19.4972 89.6277 21.3165 92.3073 24.5563 94.7622C27.8008 97.2205 32.5119 99.4872 38.3985 101.496C50.1746 105.514 66.7123 108.518 85.7882 109.933L85.8252 109.434C66.7738 108.021 50.2818 105.022 38.5599 101.023C32.6975 99.0223 28.0426 96.7764 24.8583 94.3636C21.6693 91.9473 19.9972 89.3973 19.9972 86.7909L19.4972 86.7909ZM96.7603 148.673C93.9761 136.832 89.9751 122.699 86.0461 109.612L85.5672 109.755C89.4952 122.839 93.4928 136.961 96.2736 148.787L96.7603 148.673ZM107.402 205.345C104.698 188.447 100.783 165.78 96.7603 148.673L96.2736 148.787C100.292 165.876 104.205 188.528 106.908 205.424L107.402 205.345Z" fill="white"/>
<path d="M114.457 190.607L114.704 190.649L114.704 190.649L114.457 190.607ZM107.027 190.579L107.274 190.539L107.274 190.539L107.027 190.579ZM123.725 142.778L123.969 142.836L123.969 142.836L123.725 142.778ZM133.148 107.989L133.129 107.74L132.957 107.753L132.908 107.919L133.148 107.989ZM144.701 68.4644L144.498 68.6106L144.562 68.6993L144.671 68.7126L144.701 68.4644ZM114.356 26.3422L114.559 26.1961L114.559 26.1961L114.356 26.3422ZM105.876 26.3422L106.079 26.4883L106.079 26.4883L105.876 26.3422ZM75.4469 68.5807L75.4782 68.8288L75.5862 68.8151L75.6498 68.7269L75.4469 68.5807ZM88.4495 108.028L88.6889 107.956L88.6395 107.791L88.468 107.779L88.4495 108.028ZM97.9817 142.778L98.225 142.721L98.225 142.721L97.9817 142.778ZM114.211 190.565C113.901 192.397 112.336 193.323 110.733 193.317C109.13 193.31 107.571 192.372 107.274 190.539L106.78 190.619C107.126 192.752 108.948 193.81 110.731 193.817C112.515 193.824 114.344 192.78 114.704 190.649L114.211 190.565ZM123.482 142.721C120.097 157.098 116.696 175.866 114.211 190.565L114.704 190.649C117.188 175.951 120.588 157.196 123.969 142.836L123.482 142.721ZM132.908 107.919C129.476 119.583 125.963 132.182 123.482 142.721L123.969 142.836C126.447 132.31 129.956 119.721 133.387 108.06L132.908 107.919ZM133.167 108.239C150.01 106.957 164.599 104.282 174.984 100.714C180.176 98.9309 184.331 96.9202 187.193 94.7395C190.051 92.5622 191.662 90.1821 191.662 87.6581L191.162 87.6581C191.162 89.9529 189.697 92.2035 186.89 94.3418C184.088 96.4767 179.989 98.4664 174.822 100.241C164.491 103.79 149.947 106.461 133.129 107.74L133.167 108.239ZM191.662 87.6581C191.662 85.4329 190.409 83.3191 188.157 81.3602C185.905 79.4003 182.624 77.5701 178.497 75.9073C170.24 72.5809 158.538 69.9029 144.731 68.2163L144.671 68.7126C158.455 70.3964 170.109 73.0673 178.31 76.3711C182.411 78.0234 185.635 79.8286 187.829 81.7374C190.025 83.6472 191.162 85.6353 191.162 87.6581L191.662 87.6581ZM144.904 68.3183L114.559 26.1961L114.153 26.4883L144.498 68.6106L144.904 68.3183ZM114.559 26.1961C112.373 23.1628 107.858 23.1628 105.673 26.1961L106.079 26.4883C108.064 23.732 112.167 23.732 114.153 26.4883L114.559 26.1961ZM105.673 26.1961L75.2441 68.4346L75.6498 68.7269L106.079 26.4883L105.673 26.1961ZM75.4156 68.3327C61.8612 70.0444 50.3936 72.7176 42.3075 76.0209C38.2655 77.6721 35.0547 79.4863 32.8501 81.4271C30.6465 83.367 29.422 85.4582 29.422 87.6581L29.922 87.6581C29.922 85.6582 31.0336 83.6924 33.1805 81.8024C35.3265 79.9131 38.4807 78.1243 42.4966 76.4837C50.5264 73.2034 61.9463 70.5377 75.4782 68.8288L75.4156 68.3327ZM29.422 87.6581C29.422 90.1949 31.0489 92.5864 33.9344 94.7728C36.8245 96.9627 41.0194 98.9807 46.2584 100.768C56.7393 104.345 71.4565 107.018 88.431 108.277L88.468 107.779C71.518 106.521 56.8465 103.853 46.4198 100.295C41.205 98.5158 37.0663 96.5186 34.2364 94.3743C31.4018 92.2264 29.922 89.9646 29.922 87.6581L29.422 87.6581ZM98.225 142.721C95.747 132.183 92.1857 119.603 88.6889 107.956L88.2101 108.1C91.7058 119.743 95.2637 132.312 97.7383 142.836L98.225 142.721ZM107.274 190.539C104.892 175.839 101.601 157.08 98.225 142.721L97.7383 142.836C101.11 157.176 104.399 175.92 106.78 190.619L107.274 190.539Z" fill="white"/>
<path d="M114.288 174.693L114.535 174.735L114.535 174.735L114.288 174.693ZM106.798 174.664L106.551 174.705L106.551 174.705L106.798 174.664ZM121.834 136.124L122.077 136.181L122.077 136.181L121.834 136.124ZM130.035 105.843L130.016 105.594L129.844 105.607L129.795 105.773L130.035 105.843ZM140.094 71.4389L139.891 71.585L139.955 71.6738L140.064 71.687L140.094 71.4389ZM114.227 35.5332L114.43 35.3871L114.43 35.3871L114.227 35.5332ZM105.747 35.5332L105.545 35.3871L105.545 35.3871L105.747 35.5332ZM79.8077 71.5401L79.839 71.7881L79.947 71.7745L80.0106 71.6862L79.8077 71.5401ZM91.1283 105.877L91.3677 105.805L91.3183 105.64L91.1468 105.627L91.1283 105.877ZM99.4251 136.124L99.1817 136.181L99.1817 136.181L99.4251 136.124ZM114.042 174.65C113.728 176.48 112.152 177.407 110.534 177.401C108.917 177.395 107.346 176.456 107.044 174.624L106.551 174.705C106.902 176.838 108.738 177.894 110.532 177.901C112.327 177.908 114.169 176.866 114.535 174.735L114.042 174.65ZM121.59 136.067C118.874 147.603 116.146 162.387 114.042 174.65L114.535 174.735C116.639 162.474 119.365 147.702 122.077 136.181L121.59 136.067ZM129.795 105.773C126.808 115.926 123.75 126.893 121.59 136.067L122.077 136.181C124.234 127.021 127.288 116.064 130.275 105.914L129.795 105.773ZM130.054 106.093C144.717 104.977 157.419 102.648 166.463 99.5412C170.983 97.9885 174.604 96.2369 177.099 94.3357C179.591 92.4379 181.002 90.3578 181.002 88.1459L180.502 88.1459C180.502 90.1285 179.236 92.0792 176.796 93.938C174.361 95.7933 170.796 97.5239 166.3 99.0683C157.311 102.156 144.654 104.481 130.016 105.594L130.054 106.093ZM181.002 88.1459C181.002 86.1959 179.904 84.3478 177.94 82.6395C175.976 80.9302 173.117 79.3355 169.522 77.8875C162.332 74.9906 152.143 72.6591 140.124 71.1907L140.064 71.687C152.06 73.1526 162.201 75.477 169.335 78.3513C172.904 79.7888 175.706 81.3585 177.612 83.0167C179.52 84.6759 180.502 86.3982 180.502 88.1459L181.002 88.1459ZM140.297 71.2927L114.43 35.3871L114.024 35.6793L139.891 71.585L140.297 71.2927ZM114.43 35.3871C112.245 32.3538 107.73 32.3538 105.545 35.3871L105.95 35.6794C107.936 32.923 112.039 32.923 114.024 35.6793L114.43 35.3871ZM105.545 35.3871L79.6049 71.394L80.0106 71.6862L105.95 35.6794L105.545 35.3871ZM79.7764 71.2921C67.9769 72.7823 57.9923 75.1096 50.9505 77.9864C47.4306 79.4244 44.6322 81.0052 42.7095 82.6978C40.7878 84.3897 39.7147 86.218 39.7147 88.1459L40.2147 88.1459C40.2147 86.4181 41.1749 84.7151 43.0399 83.0731C44.904 81.432 47.6458 79.8766 51.1396 78.4493C58.1252 75.5955 68.0621 73.2755 79.839 71.7881L79.7764 71.2921ZM39.7147 88.1459C39.7147 90.369 41.1404 92.459 43.6554 94.3647C46.175 96.2739 49.8301 98.0318 54.392 99.5885C63.5188 102.703 76.3325 105.03 91.1098 106.126L91.1468 105.627C76.3941 104.533 63.626 102.211 54.5535 99.1152C50.0158 97.5669 46.4168 95.8298 43.9573 93.9662C41.4932 92.0991 40.2147 90.1386 40.2147 88.1459L39.7147 88.1459ZM99.6684 136.067C97.5113 126.893 94.4114 115.943 91.3677 105.805L90.8888 105.949C93.9315 116.083 97.028 127.022 99.1817 136.181L99.6684 136.067ZM107.044 174.624C105.023 162.362 102.377 147.588 99.6684 136.067L99.1817 136.181C101.887 147.685 104.53 162.445 106.551 174.705L107.044 174.624Z" fill="white"/>
<path d="M114.324 153.862L114.571 153.906L114.571 153.906L114.324 153.862ZM106.719 153.835L106.965 153.793L106.965 153.793L106.719 153.835ZM119.616 127.316L119.86 127.373L119.86 127.373L119.616 127.316ZM126.233 102.885L126.214 102.636L126.042 102.649L125.993 102.815L126.233 102.885ZM134.244 75.1156L134.019 75.2251L134.079 75.3473L134.214 75.3637L134.244 75.1156ZM133.768 74.3214L133.565 74.4676L133.565 74.4676L133.768 74.3214ZM114.299 47.2959L114.096 47.4421L114.096 47.4421L114.299 47.2959ZM105.819 47.296L106.022 47.4421L106.022 47.4421L105.819 47.296ZM86.3496 74.3214L86.1468 74.1753L86.1468 74.1753L86.3496 74.3214ZM85.8362 75.1942L85.8673 75.4422L86.0043 75.425L86.0627 75.2999L85.8362 75.1942ZM94.8434 102.912L95.0829 102.841L95.0334 102.676L94.8619 102.663L94.8434 102.912ZM101.537 127.316L101.781 127.259L101.781 127.259L101.537 127.316ZM114.078 153.819C113.756 155.646 112.157 156.574 110.514 156.568C108.87 156.562 107.277 155.622 106.965 153.793L106.472 153.877C106.836 156.009 108.696 157.062 110.512 157.068C112.327 157.075 114.194 156.037 114.571 153.906L114.078 153.819ZM119.373 127.259C117.51 135.173 115.64 144.979 114.078 153.819L114.571 153.906C116.132 145.069 118 135.274 119.86 127.373L119.373 127.259ZM125.993 102.815C123.583 111.007 121.116 119.856 119.373 127.259L119.86 127.373C121.599 119.984 124.064 111.145 126.473 102.956L125.993 102.815ZM126.252 103.135C138.084 102.235 148.337 100.355 155.638 97.8466C159.288 96.5931 162.214 95.1779 164.234 93.6396C166.248 92.1048 167.401 90.414 167.401 88.6073L166.901 88.6073C166.901 90.1848 165.894 91.746 163.931 93.2419C161.971 94.7344 159.101 96.1285 155.476 97.3737C148.229 99.8632 138.022 101.738 126.214 102.636L126.252 103.135ZM167.401 88.6073C167.401 87.0117 166.501 85.506 164.906 84.1209C163.31 82.7349 160.99 81.4441 158.078 80.2736C152.252 77.9317 144.002 76.0494 134.274 74.8674L134.214 75.3637C143.919 76.543 152.122 78.4181 157.891 80.7375C160.777 81.8976 163.041 83.1634 164.578 84.4985C166.117 85.8345 166.901 87.2144 166.901 88.6073L167.401 88.6073ZM134.469 75.006C134.331 74.7225 134.165 74.4447 133.971 74.1753L133.565 74.4676C133.743 74.7141 133.894 74.9674 134.019 75.2251L134.469 75.006ZM133.971 74.1753L114.502 47.1498L114.096 47.4421L133.565 74.4676L133.971 74.1753ZM114.502 47.1498C112.316 44.1165 107.801 44.1165 105.616 47.1498L106.022 47.4421C108.008 44.6858 112.11 44.6858 114.096 47.4421L114.502 47.1498ZM105.616 47.1498L86.1468 74.1753L86.5524 74.4676L106.022 47.4421L105.616 47.1498ZM86.1468 74.1753C85.9339 74.4708 85.7554 74.7763 85.6096 75.0884L86.0627 75.2999C86.1951 75.0164 86.3577 74.7379 86.5524 74.4676L86.1468 74.1753ZM85.805 74.9461C76.2492 76.1454 68.1578 78.0244 62.4481 80.3507C59.5943 81.5135 57.3217 82.7935 55.7584 84.1666C54.1961 85.5389 53.3155 87.0292 53.3155 88.6073L53.8155 88.6073C53.8155 87.2296 54.5827 85.8648 56.0884 84.5423C57.5932 83.2206 59.809 81.9659 62.6368 80.8138C68.2902 78.5104 76.334 76.6387 85.8673 75.4422L85.805 74.9461ZM53.3155 88.6073C53.3155 90.4232 54.4799 92.1219 56.5139 93.6631C58.5525 95.2078 61.5068 96.6281 65.1896 97.8848C72.5582 100.399 82.9005 102.277 94.8249 103.162L94.8619 102.663C82.9621 101.78 72.6654 99.9074 65.3511 97.4116C61.6925 96.1632 58.7943 94.7637 56.8159 93.2646C54.8328 91.7619 53.8155 90.1928 53.8155 88.6073L53.3155 88.6073ZM101.781 127.259C100.04 119.856 97.5386 111.02 95.0829 102.841L94.604 102.984C97.0587 111.161 99.5567 119.985 101.294 127.373L101.781 127.259ZM106.965 153.793C105.46 144.957 103.639 135.16 101.781 127.259L101.294 127.373C103.148 135.259 104.967 145.044 106.472 153.877L106.965 153.793Z" fill="white"/>
<path d="M114.601 131.888L114.356 131.842L114.356 131.842L114.601 131.888ZM106.755 131.862L106.51 131.907L106.51 131.907L106.755 131.862ZM117.254 119.135L117.01 119.078L117.01 119.078L117.254 119.135ZM122.05 101.426L122.031 101.176L121.859 101.189L121.81 101.355L122.05 101.426ZM126.858 81.1774L126.609 81.1919L126.621 81.4022L126.83 81.4258L126.858 81.1774ZM125.872 78.438L126.075 78.2919L126.075 78.2919L125.872 78.438ZM114.565 62.7434L114.362 62.8895L114.362 62.8895L114.565 62.7434ZM106.085 62.7434L106.288 62.8895L106.288 62.8895L106.085 62.7434ZM94.7788 78.438L94.9816 78.5841L94.9816 78.5841L94.7788 78.438ZM93.7897 81.2276L93.8187 81.4759L94.0293 81.4513L94.0395 81.2396L93.7897 81.2276ZM99.2955 101.445L99.5349 101.373L99.4855 101.209L99.314 101.196L99.2955 101.445ZM104.148 119.135L103.904 119.192L103.904 119.192L104.148 119.135ZM114.356 131.842C114.012 133.663 112.369 134.594 110.672 134.588C108.975 134.582 107.336 133.64 107.001 131.817L106.51 131.907C106.901 134.037 108.812 135.082 110.67 135.088C112.529 135.095 114.445 134.063 114.847 131.935L114.356 131.842ZM117.01 119.078C116.105 122.925 115.197 127.388 114.356 131.842L114.847 131.935C115.687 127.484 116.594 123.029 117.497 119.192L117.01 119.078ZM121.81 101.355C120.063 107.294 118.274 113.71 117.01 119.078L117.497 119.192C118.758 113.838 120.543 107.432 122.29 101.496L121.81 101.355ZM122.069 101.675C130.65 101.022 138.088 99.6586 143.389 97.8379C146.038 96.928 148.167 95.8992 149.639 94.7778C151.107 93.6598 151.962 92.4163 151.962 91.0751L151.462 91.0751C151.462 92.187 150.752 93.3011 149.336 94.3801C147.924 95.4557 145.851 96.4635 143.226 97.365C137.98 99.167 130.587 100.525 122.031 101.176L122.069 101.675ZM151.962 91.0751C151.962 89.8626 151.262 88.7297 150.047 87.6995C148.829 86.6679 147.065 85.7122 144.859 84.8506C140.446 83.1263 134.209 81.7572 126.886 80.929L126.83 81.4258C134.129 82.2515 140.319 83.6138 144.677 85.3163C146.858 86.168 148.565 87.0994 149.723 88.081C150.883 89.0639 151.462 90.0701 151.462 91.0751L151.962 91.0751ZM127.108 81.1629C127.051 80.1821 126.723 79.1913 126.075 78.2919L125.669 78.5841C126.26 79.4052 126.557 80.3044 126.609 81.1919L127.108 81.1629ZM126.075 78.2919L114.768 62.5972L114.362 62.8895L125.669 78.5841L126.075 78.2919ZM114.768 62.5972C112.583 59.5639 108.068 59.5639 105.882 62.5972L106.288 62.8895C108.274 60.1332 112.377 60.1332 114.362 62.8895L114.768 62.5972ZM105.882 62.5972L94.5759 78.2919L94.9816 78.5841L106.288 62.8895L105.882 62.5972ZM94.5759 78.2919C93.9163 79.2074 93.588 80.2176 93.54 81.2156L94.0395 81.2396C94.0829 80.3366 94.3795 79.4199 94.9816 78.5841L94.5759 78.2919ZM93.7608 80.9793C86.5551 81.8205 80.4271 83.1882 76.0933 84.9024C73.9274 85.759 72.1958 86.7075 71.0013 87.7305C69.8082 88.7523 69.122 89.8748 69.122 91.0751L69.622 91.0751C69.622 90.0802 70.1895 89.0841 71.3265 88.1103C72.4621 87.1378 74.1371 86.2138 76.2772 85.3673C80.5551 83.6753 86.6359 82.3145 93.8187 81.4759L93.7608 80.9793ZM69.122 91.0751C69.122 92.4231 69.9864 93.6724 71.4679 94.7949C72.954 95.921 75.1033 96.9535 77.7765 97.8656C83.1256 99.6908 90.6293 101.053 99.277 101.694L99.314 101.196C90.6908 100.556 83.2328 99.1991 77.9379 97.3924C75.289 96.4885 73.1958 95.4769 71.7698 94.3964C70.3392 93.3124 69.622 92.1927 69.622 91.0751L69.122 91.0751ZM104.391 119.078C103.129 113.709 101.315 107.303 99.5349 101.373L99.056 101.517C100.835 107.444 102.646 113.839 103.904 119.192L104.391 119.078ZM107.001 131.817C106.184 127.37 105.294 122.916 104.391 119.078L103.904 119.192C104.804 123.019 105.693 127.464 106.51 131.907L107.001 131.817Z" fill="white"/>
<path d="M114.418 115.064L114.174 115.012L114.174 115.012L114.418 115.064ZM106.152 115.041L106.396 114.988L106.396 114.988L106.152 115.041ZM115.028 112.351L115.272 112.409L115.272 112.409L115.028 112.351ZM118.499 99.5388L118.48 99.2895L118.308 99.3026L118.259 99.4682L118.499 99.5388ZM120.491 84.7396L120.246 84.6876L120.188 84.9615L120.467 84.9885L120.491 84.7396ZM119.61 80.6225L119.813 80.4764L119.813 80.4764L119.61 80.6225ZM114.258 73.1927L114.055 73.3389L114.055 73.3389L114.258 73.1927ZM105.778 73.1927L105.575 73.0466L105.575 73.0466L105.778 73.1927ZM100.425 80.6225L100.628 80.7686L100.628 80.7686L100.425 80.6225ZM99.5512 84.7699L99.576 85.0186L99.8554 84.9907L99.7954 84.7164L99.5512 84.7699ZM102.039 99.5529L102.279 99.481L102.229 99.3163L102.058 99.3036L102.039 99.5529ZM105.55 112.351L105.793 112.294L105.793 112.294L105.55 112.351ZM114.174 115.012C113.783 116.822 112.065 117.755 110.283 117.749C108.5 117.744 106.783 116.8 106.396 114.988L105.907 115.093C106.36 117.212 108.353 118.244 110.281 118.249C112.21 118.255 114.205 117.236 114.662 115.117L114.174 115.012ZM114.785 112.294C114.581 113.161 114.377 114.072 114.174 115.012L114.662 115.117C114.865 114.18 115.068 113.272 115.272 112.409L114.785 112.294ZM118.259 99.4682C116.995 103.765 115.7 108.409 114.785 112.294L115.272 112.409C116.183 108.536 117.475 103.903 118.738 99.6093L118.259 99.4682ZM118.518 99.788C124.726 99.3157 130.112 98.3289 133.953 97.0095C135.872 96.3504 137.419 95.6034 138.492 94.7861C139.561 93.9722 140.2 93.055 140.2 92.0533L139.7 92.0533C139.7 92.8257 139.206 93.6134 138.189 94.3884C137.176 95.1599 135.685 95.8858 133.79 96.5367C130.004 97.8373 124.664 98.819 118.48 99.2895L118.518 99.788ZM140.2 92.0533C140.2 91.106 139.628 90.234 138.664 89.455C137.697 88.6738 136.301 87.9561 134.567 87.3156C131.094 86.0337 126.206 85.0411 120.515 84.4908L120.467 84.9885C126.135 85.5365 130.976 86.5231 134.393 87.7846C136.103 88.4159 137.442 89.1109 138.349 89.8439C139.259 90.5792 139.7 91.323 139.7 92.0533L140.2 92.0533ZM120.735 84.7916C121.036 83.3779 120.785 81.8258 119.813 80.4764L119.407 80.7687C120.293 81.9978 120.519 83.4046 120.246 84.6876L120.735 84.7916ZM119.813 80.4764L114.46 73.0466L114.055 73.3389L119.407 80.7687L119.813 80.4764ZM114.46 73.0466C112.275 70.0133 107.76 70.0133 105.575 73.0466L105.981 73.3389C107.966 70.5825 112.069 70.5825 114.055 73.3389L114.46 73.0466ZM105.575 73.0466L100.222 80.4764L100.628 80.7686L105.981 73.3389L105.575 73.0466ZM100.222 80.4764C99.2431 81.8359 98.9957 83.4011 99.307 84.8233L99.7954 84.7164C99.5129 83.4256 99.7361 82.0069 100.628 80.7686L100.222 80.4764ZM99.5263 84.5211C93.9155 85.0822 89.1044 86.0749 85.6887 87.3505C83.9821 87.9878 82.6097 88.7009 81.6594 89.4763C80.7116 90.2498 80.1498 91.1145 80.1498 92.0533L80.6498 92.0533C80.6498 91.3296 81.0822 90.5927 81.9755 89.8637C82.8663 89.1368 84.1821 88.4468 85.8636 87.8189C89.2241 86.5639 93.9887 85.5774 99.576 85.0186L99.5263 84.5211ZM80.1498 92.0533C80.1498 93.06 80.7952 93.9814 81.8736 94.7986C82.9566 95.6192 84.5187 96.3688 86.4552 97.0296C90.331 98.3522 95.7637 99.3381 102.021 99.8022L102.058 99.3036C95.8252 98.8412 90.4382 97.8604 86.6166 96.5564C84.7044 95.9039 83.1985 95.1751 82.1756 94.4001C81.1481 93.6215 80.6498 92.8296 80.6498 92.0533L80.1498 92.0533ZM105.793 112.294C104.88 108.408 103.567 103.771 102.279 99.481L101.8 99.6248C103.087 103.912 104.396 108.537 105.307 112.409L105.793 112.294ZM106.396 114.988C106.197 114.057 105.996 113.154 105.793 112.294L105.307 112.409C105.508 113.265 105.709 114.164 105.907 115.093L106.396 114.988Z" fill="white"/>
</svg>
