<svg width="28" height="28" viewBox="0 0 28 28" fill="none" xmlns="http://www.w3.org/2000/svg">
<path d="M23.2169 3.72174C23.5507 3.48281 23.9871 3.92277 23.7458 4.25483C22.5695 5.87344 20.9282 8.18754 19.8022 10.0063C19.3764 10.6939 18.9219 11.4771 18.4702 12.2832C17.8696 13.3548 18.032 14.677 18.7736 15.6563C20.8021 18.3351 21.7605 20.5854 21.0161 21.331C19.9437 22.4035 15.7512 19.9496 11.6525 15.851C7.55391 11.7523 5.10064 7.5605 6.17311 6.48802C6.91316 5.74931 9.1349 6.6873 11.7869 8.68422C12.7714 9.42547 14.0988 9.58346 15.1715 8.97701C15.9738 8.52344 16.7539 8.06841 17.4399 7.64397C19.2613 6.51695 21.5884 4.88743 23.2169 3.72174Z" fill="white"/>
<path d="M22.8631 22.588C22.7504 23.1312 22.5232 23.5922 22.1664 23.949C20.0362 26.0793 14.2106 23.7079 9.15466 18.652C4.09884 13.5961 1.72736 7.77044 3.85758 5.64022C4.21427 5.28361 4.67503 5.05554 5.21793 4.94278C5.00882 5.05324 4.8206 5.19098 4.65515 5.35641C2.58467 7.42689 4.88978 13.0888 9.80377 18.0029C14.7179 22.917 20.3804 25.2227 22.4509 23.1522C22.6164 22.9866 22.7527 22.7973 22.8631 22.588Z" fill="white"/>
<path d="M13.2138 22.9228C13.151 23.2026 13.0298 23.4388 12.8422 23.6195C11.7286 24.6918 8.76293 23.4182 6.21798 20.7752C3.67303 18.1322 2.51243 15.1205 3.62603 14.0482C3.81358 13.8677 4.05389 13.7547 4.33565 13.7025C4.22562 13.7575 4.12582 13.826 4.0382 13.9103C2.95582 14.9525 4.08348 17.8798 6.55705 20.4487C9.03065 23.0176 11.9132 24.2551 12.9956 23.2129C13.0832 23.1284 13.1547 23.0308 13.2138 22.9228Z" fill="white"/>
</svg>
