<svg width="395" height="628" viewBox="0 0 395 628" fill="none" xmlns="http://www.w3.org/2000/svg">
<g opacity="0.5">
<g style="mix-blend-mode:lighten" filter="url(#filter0_d_766_19750)">
<path d="M327.927 286.929C333.2 283.168 340.11 290.133 336.312 295.38C320.17 317.676 298.864 347.887 283.997 371.899C278.648 380.538 272.969 390.256 267.286 400.314C257.749 417.193 260.364 438.041 271.916 453.61C298.651 489.64 311.016 519.635 300.907 529.745C285.959 544.693 227.528 510.499 170.399 453.37C113.27 396.241 79.0768 337.811 94.0255 322.863C104.055 312.834 133.656 324.926 169.305 351.223C184.956 362.768 205.88 365.309 222.778 355.681C232.783 349.981 242.456 344.299 251.068 338.97C275.117 324.09 305.495 302.93 327.927 286.929Z" fill="#0F0F0F"/>
<path d="M80.8405 301.264C77.8798 302.814 75.2137 304.749 72.8772 307.085C44.0183 335.944 76.1494 414.865 144.644 483.36C213.138 551.854 292.059 583.985 320.918 555.126C323.252 552.793 325.184 550.13 326.733 547.173C325.17 554.789 321.953 561.243 316.957 566.239C287.265 595.93 206.068 562.873 135.598 492.403C65.1276 421.933 32.0699 340.735 61.761 311.043C66.7597 306.044 73.2191 302.826 80.8405 301.264Z" fill="#0F0F0F"/>
<path d="M192.194 551.93C191.319 555.826 189.606 559.109 186.992 561.626C171.471 576.571 130.132 558.824 94.6596 521.985C59.1874 485.145 43.0148 443.166 58.5364 428.22C61.1496 425.704 64.4944 424.115 68.4199 423.387C66.8843 424.154 65.4966 425.121 64.2741 426.298C49.1876 440.825 64.9071 481.629 99.3847 517.435C133.862 553.241 174.043 570.491 189.129 555.965C190.352 554.787 191.37 553.436 192.194 551.93Z" fill="#0F0F0F"/>
</g>
</g>
<defs>
<filter id="filter0_d_766_19750" x="13.9031" y="248.901" width="360.46" height="365.196" filterUnits="userSpaceOnUse" color-interpolation-filters="sRGB">
<feFlood flood-opacity="0" result="BackgroundImageFix"/>
<feColorMatrix in="SourceAlpha" type="matrix" values="0 0 0 0 0 0 0 0 0 0 0 0 0 0 0 0 0 0 127 0" result="hardAlpha"/>
<feOffset/>
<feGaussianBlur stdDeviation="18.4795"/>
<feComposite in2="hardAlpha" operator="out"/>
<feColorMatrix type="matrix" values="0 0 0 0 0.998257 0 0 0 0 0.998257 0 0 0 0 0.998257 0 0 0 0.5 0"/>
<feBlend mode="normal" in2="BackgroundImageFix" result="effect1_dropShadow_766_19750"/>
<feBlend mode="normal" in="SourceGraphic" in2="effect1_dropShadow_766_19750" result="shape"/>
</filter>
</defs>
</svg>
